<svg viewBox="0 0 400 500" xmlns="http://www.w3.org/2000/svg">
  <defs>
    <linearGradient id="bg" x1="0%" y1="0%" x2="100%" y2="100%">
      <stop offset="0%" stop-color="#1a4a1a"/>
      <stop offset="100%" stop-color="#2d6a2d"/>
    </linearGradient>
  </defs>
  <!-- Cameroon simplified outline -->
  <path d="M200 30 L260 55 L290 95 L310 145 L320 195 L300 235 L310 275 L290 315 L270 345 L240 365 L210 375 L190 365 L160 345 L140 315 L120 275 L110 235 L100 195 L110 145 L130 95 L160 55 Z"
    fill="url(#bg)" stroke="#1a4a1a" stroke-width="2"/>
  <!-- Region boundaries -->
  <path d="M200 30 L200 375 M260 55 L240 120 L200 150 L160 120 L130 95 M290 95 L260 160 L240 200 L200 220 L160 200 L140 160 L110 145 M310 195 L280 240 L240 260 L220 240 L200 260 L180 240 L140 240 L100 195 M200 260 L200 375 M240 260 L260 345 M160 260 L140 345" fill="none" stroke="#3a8a3a" stroke-width="1.2" stroke-dasharray="4,3" opacity="0.6"/>
  <!-- Region capitals/dots -->
  <circle cx="200" cy="90" r="4" fill="#D4A843"/><text x="205" y="85" font-size="8" fill="#D4A843" font-weight="bold">Adamaoua</text>
  <circle cx="260" cy="120" r="4" fill="#D4A843"/><text x="265" y="115" font-size="8" fill="#D4A843" font-weight="bold">Nord</text>
  <circle cx="300" cy="180" r="4" fill="#D4A843"/><text x="282" y="170" font-size="8" fill="#D4A843" font-weight="bold">Extrême-Nord</text>
  <circle cx="225" cy="210" r="4" fill="#D4A843"/><text x="230" y="205" font-size="8" fill="#D4A843" font-weight="bold">Nord-Ouest</text>
  <circle cx="185" cy="235" r="4" fill="#D4A843"/><text x="160" y="230" font-size="8" fill="#D4A843" font-weight="bold">Sud-Ouest</text>
  <circle cx="245" cy="255" r="4" fill="#D4A843"/><text x="250" y="265" font-size="8" fill="#D4A843" font-weight="bold">Ouest</text>
  <circle cx="260" cy="300" r="4" fill="#D4A843"/><text x="265" y="310" font-size="8" fill="#D4A843" font-weight="bold">Centre</circle>
  <circle cx="210" cy="320" r="4" fill="#D4A843"/><text x="170" y="325" font-size="8" fill="#D4A843" font-weight="bold">Littoral</text>
  <circle cx="280" cy="340" r="4" fill="#D4A843"/><text x="285" y="350" font-size="8" fill="#D4A843" font-weight="bold">Est</text>
  <circle cx="220" cy="370" r="4" fill="#D4A843"/><text x="195" y="385" font-size="8" fill="#D4A843" font-weight="bold">Sud</text>
</svg>
